# xmcd
# 
# Track frame offsets:
#     150
#     17653
#     39153
#     57300
#     73610
#     91960
#     122404
#     140300
#     161247
#     169279
#     184279
#     203392
#     224267
#     239741
#     254648
# 
# Disc length: 3615
# 
# Revision: 0
# Processed by: cddbd v1.5.2PL0 Copyright (c) Steve Scherf et al.
# Submitted via: fre:ac v1.0.27
# 
DISCID=d70e1d0f
DTITLE=Various Artist - Singers and Songwriters of the Seventies
DYEAR=1979
DGENRE=Folk/Rock
TTITLE0=Steve Goodman - City Of New Orleans
TTITLE1=Joan Baez - Diamonds and Rust
TTITLE2=Jesse Winchester - Yankee Lady
TTITLE3=Nitty Gritty Dirt Band - Mr. Bojangles
TTITLE4=Don McLean - Vincent
TTITLE5=Harry Chapin - Taxi
TTITLE6=Arlo Guthrie - Hobo's Lullaby
TTITLE7=Phoebe Snow - Poetry Man
TTITLE8=John Sebastian - She's A Lady
TTITLE9=Janis Ian - From Me To You
TTITLE10=Seals and Crofts - Diamond Girl
TTITLE11=Seals and Crofts - Hummingbird
TTITLE12=Seals and Crofts - Summer Breeze
TTITLE13=Seals and Crofts - King Of Nothing
TTITLE14=Seals and Crofts - Castles In The Sand
EXTD=
EXTT0=
EXTT1=
EXTT2=
EXTT3=
EXTT4=
EXTT5=
EXTT6=
EXTT7=
EXTT8=
EXTT9=
EXTT10=
EXTT11=
EXTT12=
EXTT13=
EXTT14=
PLAYORDER=
